<?xml version="1.0" standalone="no"?>
<!DOCTYPE svg PUBLIC "-//W3C//DTD SVG 20010904//EN"
 "http://www.w3.org/TR/2001/REC-SVG-20010904/DTD/svg10.dtd">
<svg version="1.0" xmlns="http://www.w3.org/2000/svg"
 width="942.000000pt" height="183.000000pt" viewBox="0 0 942.000000 183.000000"
 preserveAspectRatio="xMidYMid meet">

<g transform="translate(0.000000,183.000000) scale(0.100000,-0.100000)"
fill="#000000" stroke="none">
<path d="M675 1815 c-147 -27 -300 -105 -416 -212 -122 -113 -222 -303 -248
-470 -14 -93 -14 -343 0 -436 36 -230 179 -445 381 -570 154 -96 279 -126 528
-127 142 0 179 4 265 25 306 75 531 290 617 590 21 73 23 100 23 300 0 200 -2
227 -23 300 -86 300 -311 515 -617 590 -87 22 -121 25 -270 24 -93 0 -201 -7
-240 -14z m500 -634 l246 -214 -27 -28 c-25 -26 -28 -27 -50 -12 l-24 15 0
-201 c0 -223 -5 -248 -60 -276 -19 -10 -58 -15 -116 -15 l-86 0 33 39 c30 35
39 39 80 40 25 1 50 6 57 13 9 9 12 77 12 244 l0 231 -155 134 c-86 74 -160
135 -165 137 -5 2 -79 -56 -164 -130 l-155 -133 -1 -241 c0 -268 -4 -254 69
-254 32 0 43 -6 71 -41 l33 -41 -97 3 c-93 4 -97 5 -128 37 l-33 32 -3 211 -3
211 -21 -18 c-20 -19 -20 -18 -44 11 -13 17 -23 33 -21 37 4 14 489 429 497
426 4 -2 119 -99 255 -217z m-188 -202 c94 -35 153 -119 153 -219 0 -81 -43
-162 -136 -256 -40 -41 -79 -74 -87 -74 -23 0 -170 160 -196 214 -49 100 -37
196 33 272 60 66 157 92 233 63z"/>
<path d="M847 889 c-41 -22 -76 -81 -77 -130 0 -38 44 -118 98 -178 l47 -54
52 56 c92 101 116 189 70 258 -44 66 -120 85 -190 48z m119 -95 c19 -28 11
-59 -21 -80 -21 -13 -28 -14 -52 -2 -24 11 -28 19 -28 53 0 31 5 42 23 51 31
15 60 7 78 -22z"/>
<path d="M2060 1005 l0 -335 205 0 205 0 0 50 0 50 -140 0 -140 0 0 285 0 285
-65 0 -65 0 0 -335z"/>
<path d="M4600 1005 l0 -335 60 0 60 0 0 335 0 335 -60 0 -60 0 0 -335z"/>
<path d="M5320 1005 l0 -335 55 0 55 0 0 335 0 335 -55 0 -55 0 0 -335z"/>
<path d="M6940 1215 l0 -126 -31 35 c-23 27 -41 37 -75 42 -94 14 -175 -46
-204 -150 -18 -67 -9 -200 18 -252 60 -118 202 -139 273 -42 l29 41 0 -46 0
-47 50 0 50 0 0 335 0 335 -55 0 -55 0 0 -125z m-38 -174 c30 -27 33 -34 36
-105 3 -47 -1 -88 -8 -107 -27 -65 -102 -89 -153 -49 -45 36 -59 167 -25 235
31 60 99 72 150 26z"/>
<path d="M7190 1005 l0 -337 158 4 c136 4 164 7 209 27 199 87 241 404 76 563
-64 63 -97 71 -280 76 l-163 4 0 -337z m332 203 c55 -42 81 -107 81 -203 0
-90 -15 -134 -59 -179 -42 -42 -84 -56 -164 -56 l-70 0 0 236 0 236 88 -4 c78
-3 93 -6 124 -30z"/>
<path d="M8820 1285 l0 -55 55 0 55 0 0 55 0 55 -55 0 -55 0 0 -55z"/>
<path d="M3974 1236 c-17 -8 -36 -26 -43 -43 l-12 -29 -92 0 c-99 1 -132 -10
-176 -57 -44 -48 -37 -145 13 -186 13 -11 11 -17 -19 -46 -42 -39 -47 -87 -15
-128 l21 -26 -24 -16 c-74 -48 -57 -148 31 -188 64 -29 234 -31 304 -4 93 36
137 121 102 193 -34 69 -59 79 -204 82 -111 3 -131 7 -146 23 -13 15 -15 24
-7 41 9 21 16 23 104 23 70 1 103 5 132 19 85 42 111 145 52 206 -29 31 -29
32 -11 46 11 8 37 14 58 14 l38 0 0 45 0 45 -37 0 c-21 -1 -52 -7 -69 -14z
m-100 -147 c30 -14 46 -54 35 -92 -11 -39 -36 -56 -85 -57 -66 0 -107 53 -84
110 19 45 80 63 134 39z m79 -427 c23 -20 22 -55 -4 -78 -32 -29 -186 -28
-225 2 -38 28 -48 47 -41 76 l7 25 122 -5 c91 -3 128 -8 141 -20z"/>
<path d="M2715 1165 c-5 -2 -23 -6 -38 -9 -41 -10 -113 -81 -133 -131 -22 -58
-16 -184 11 -239 31 -65 77 -103 140 -117 156 -35 285 74 285 242 0 90 -22
149 -75 198 -53 49 -137 74 -190 56z m105 -112 c64 -58 63 -224 -1 -278 -67
-55 -148 -17 -170 80 -26 117 25 225 106 225 24 0 44 -9 65 -27z"/>
<path d="M3285 1156 c-31 -14 -64 -46 -83 -81 -10 -17 -11 -11 -12 33 l0 52
-50 0 -50 0 0 -245 0 -245 55 0 55 0 0 150 c0 105 4 161 14 183 27 65 103 88
144 44 21 -22 22 -32 22 -200 l0 -177 55 0 55 0 0 198 c0 178 -2 200 -20 229
-10 18 -30 39 -43 47 -34 23 -106 29 -142 12z"/>
<path d="M4219 1159 c-20 -6 -51 -26 -69 -44 -27 -28 -34 -44 -37 -87 -7 -91
36 -136 149 -157 104 -20 127 -30 134 -58 10 -37 -16 -56 -84 -61 -54 -4 -62
-2 -93 26 -33 29 -37 30 -82 20 -26 -5 -47 -13 -47 -16 0 -23 46 -75 82 -94
60 -31 183 -31 250 -1 65 30 90 71 85 142 -3 47 -9 59 -38 86 -28 26 -51 35
-124 49 -99 19 -135 37 -135 66 0 50 106 68 157 27 24 -20 33 -22 71 -15 23 5
42 15 42 22 0 21 -39 65 -71 82 -38 19 -143 26 -190 13z"/>
<path d="M4939 1159 c-20 -6 -51 -26 -69 -44 -27 -28 -34 -44 -37 -87 -7 -91
36 -136 149 -157 104 -20 127 -30 134 -58 10 -37 -16 -56 -84 -61 -54 -4 -62
-2 -93 26 -33 29 -37 30 -82 20 -26 -5 -47 -13 -47 -16 0 -23 46 -75 82 -94
60 -31 183 -31 250 -1 65 30 90 71 85 142 -3 47 -9 59 -38 86 -28 26 -51 35
-124 49 -99 19 -135 37 -135 66 0 50 106 68 157 27 24 -20 33 -22 71 -15 23 5
42 15 42 22 0 21 -39 65 -71 82 -38 19 -143 26 -190 13z"/>
<path d="M5686 1159 c-53 -12 -105 -53 -123 -96 -8 -20 -13 -36 -11 -38 2 -1
24 -5 51 -8 38 -5 47 -4 47 8 0 9 15 24 33 36 25 16 44 19 90 16 64 -4 84 -17
93 -63 l6 -31 -80 -6 c-120 -9 -169 -25 -213 -67 -36 -34 -39 -41 -39 -91 0
-90 45 -143 131 -155 68 -9 122 10 163 58 33 39 36 40 36 17 0 -60 9 -69 65
-69 l52 0 -8 43 c-4 23 -8 115 -9 204 l0 162 -30 35 c-45 51 -150 69 -254 45z
m184 -261 c0 -84 -45 -139 -117 -145 -83 -8 -130 54 -88 115 19 26 92 50 158
51 42 1 47 -1 47 -21z"/>
<path d="M6305 1156 c-31 -14 -64 -46 -83 -81 -10 -17 -11 -11 -12 33 l0 52
-50 0 -50 0 0 -245 0 -245 55 0 55 0 0 150 c0 105 4 161 14 183 27 65 103 88
144 44 21 -22 22 -32 22 -200 l0 -177 55 0 55 0 0 198 c0 178 -2 200 -20 229
-10 18 -30 39 -43 47 -34 23 -106 29 -142 12z"/>
<path d="M7975 1161 c-42 -11 -65 -25 -102 -63 -43 -44 -63 -106 -63 -192 0
-126 58 -210 163 -237 100 -25 205 15 253 97 15 25 25 46 23 48 -2 2 -26 6
-52 9 -43 6 -49 5 -58 -16 -24 -52 -101 -72 -160 -41 -32 16 -59 66 -59 109
l0 25 171 0 172 0 -7 57 c-8 64 -48 146 -85 173 -50 35 -128 47 -196 31z m108
-92 c31 -16 57 -50 57 -76 0 -22 -2 -23 -111 -23 -97 0 -110 2 -105 16 3 9 6
20 6 26 0 5 14 23 31 39 34 31 82 38 122 18z"/>
<path d="M8439 1159 c-20 -6 -51 -26 -69 -44 -27 -28 -34 -44 -37 -87 -7 -91
36 -136 149 -157 104 -20 127 -30 134 -58 10 -37 -16 -56 -84 -61 -54 -4 -62
-2 -93 26 -33 29 -37 30 -82 20 -26 -5 -47 -13 -47 -16 0 -23 46 -75 82 -94
60 -31 183 -31 250 -1 65 30 90 71 85 142 -3 47 -9 59 -38 86 -28 26 -51 35
-124 49 -99 19 -135 37 -135 66 0 50 106 68 157 27 24 -20 33 -22 71 -15 23 5
42 15 42 22 0 21 -39 65 -71 82 -38 19 -143 26 -190 13z"/>
<path d="M9129 1159 c-20 -6 -51 -26 -69 -44 -27 -28 -34 -44 -37 -87 -7 -91
36 -136 149 -157 104 -20 127 -30 134 -58 10 -37 -16 -56 -84 -61 -54 -4 -62
-2 -93 26 -33 29 -37 30 -82 20 -26 -5 -47 -13 -47 -16 0 -23 46 -75 82 -94
60 -31 183 -31 250 -1 65 30 90 71 85 142 -3 47 -9 59 -38 86 -28 26 -51 35
-124 49 -99 19 -135 37 -135 66 0 50 106 68 157 27 24 -20 33 -22 71 -15 23 5
42 15 42 22 0 21 -39 65 -71 82 -38 19 -143 26 -190 13z"/>
<path d="M8820 915 l0 -245 55 0 55 0 0 245 0 245 -55 0 -55 0 0 -245z"/>
</g>
</svg>
